<mxfile host="app.diagrams.net" modified="2024-07-23T09:00:30.762Z" agent="Mozilla/5.0 (X11; Linux x86_64) AppleWebKit/537.36 (KHTML, like Gecko) Chrome/125.0.0.0 Safari/537.36" version="24.7.3" etag="n0VFk5HXQ2a0As0Gq5dv" type="github">
  <diagram name="Page-1" id="wN6mYMn5owhesz87yCZD">
    <mxGraphModel>
      <root>
        <mxCell id="0" />
        <mxCell id="1" parent="0" />
      </root>
    </mxGraphModel>
  </diagram>
</mxfile>
